/* XPM */
static char *_3d23bd0dca54e67c45eb1905c80568fGWO6SHRQkOUgB8Ny[] = {
/* columns rows colors chars-per-pixel */
"64 64 17 1 ",
"  c black",
". c #2C397A",
"X c #BA132C",
"o c #D91835",
"O c #F01838",
"+ c #E40F7C",
"@ c #996160",
"# c #E36477",
"$ c #C78D6D",
"% c #5665B3",
"& c #ED66AC",
"* c gray68",
"= c #E2A789",
"- c #FCB0C6",
"; c #C0C0C0",
": c #E0D7E0",
"> c white",
/* pixels */
"@@@@@@@@@@@@@@@@@@@@@@@@@@@@@@@@@@@@@@@@@@@@@@@@@@@@@@@@@@@@@@@@",
"$$$$$$$$$$$$$@@$$$$$$$$$$$$$$$$$$$$$$$$$$$$$$$$$$$$$$$$$$$$$$$$$",
"============$@@$================================================",
"$$$==$$=====$@@$=========$$$$$$$$========$$$$$$$$$$$====$$=====$",
"=======$$$==$@@$$$$$$$$$==================================$$=$$=",
"============$@@$==================$$$$$$$$$==$=$$$$$$$$$========",
"=======$$$$$$@@$=======$$$==$$$=================================",
"===$$$$=====$@@$$$$$$====================================$$$====",
"$$==========$@@$=====$$$$$$$=========$$$$======$$$$$$$======$$$$",
"============$@@$=============== ======================$$$=======",
"======$$$$$$$@@$==============$ $$$=======$$$$$$================",
"$$$$$$======$@@$$$$$$===$$$$$$ ; ==$$$$$$$======$$$$$========$$$",
"======$$$$$$$@@$============== ; $$==================$$$$==$$===",
"============$@@$============= *;* ==============================",
"$$$$$$$$$$$$$@@$$$$$$$$$$$$$$ *;* $$$$$$$$$$$$$$$$$$$$$$$$$$$$$$",
"@@@@@@@@@@@@@@@@@@@@@@@@@@@@ *;;;* @@@@@@@@@@@@@@@@@@@@@@@@@@@@@",
"@@@@@@@@@@@@@@@@@@@@@@@@@@@@ *;;;* @@@@@@@@@@@@@@@@@@@@@@@@@@@@@",
"$@@$$$$$$$$$$$$$$$$$$$$     *;;;;;*     $$$$$$$$$$$$$$$$$$$$$$$$",
"$@@$===============    XXXX *;;;;;* XXXX    ====================",
"$@@$=======$$$$==  XXXXXXX *;;;;;;;* XXXXXXX  ===============$$$",
"$@@$$$$$$======= XXXXXXXXX *;;;;;;;; XXXXXXXXX =$$$$$===========",
"$@@$=====$$$$$$$   XXXXXXXX         XXXXXXXX   $======$$$$======",
"$@@$============= o    XXXXXXXXXXXXXXXXX    o =============$$$==",
"$@@$============= ooooO                 Ooooo ==================",
"$@@$============== oooOOOOOOOOOOOOOOOOOOOooo ===$$$$$$$========$",
"$@@$========$$$$$$ ooooOOOOOOOOOOOOOOOOOOooo ==$=========$$$$===",
"$@@$=$$$$$$======== oooOOOOOOOOOOOOOOOOOooo $$$==============$$$",
"$@@$=============== oooOOO   OOOOO   OOOooo =====$$$$$$$========",
"$@@$=========$$$$=$$ ooOO .%% OOO .%% Oooo =$$$$$=======$$$$$===",
"$@@$================ ooo .%%>% O .%%>% ooo =====================",
"$@@$$$$$$$$$$$$$$$$$$ oo .%%%% O .%%%% oo $$$$$$$$$$$$$$$$$$$$$$",
"@@@@@@@@@@@@@@@@@@@@@ oo .%%%% O .%%%% oo @@@@@@@@@@@@@@@@@@@@@@",
"@@@@@@@@@@@@@@@@@@@@@ ooO .%% OOO .%% ooo @@@@@@@@@@@@@@@@@@@@@@",
"$$$$$$$$$$$$$$$$$$$$$ oooO   OOOOO   Oooo $$$$$$$$$$$$$$$$$$$$$$",
"===================  ooooOOOOOOOOOOOOOoooo  ====================",
"=====$$$========== ooooo--OOOOOOOOOOO--ooooo =========$$$$$=====",
"$$$$====$$$$===== oooooo--OO       OO--oooooo $$$$$$=======$$$$$",
"============$$$$ ooooooooOOO +++++ OOOoooooooo =================",
"=============== ooooo  ooOOO +++++ OOOoo  ooooo =$$$$$$$$===$$$=",
"===$$$$$$$$$$$ ooooo $ ooOOO +&&&+ OOOoo = ooooo ========$$=====",
"$$$=========== oooo == ooOOOO     OOOOoo $$ oooo ===$$$$========",
"====$$$$$$$   oooo === oooOOOOOOOOOOOooo === oooo   ====$$$$$===",
"$$$$====== ### o  $$$$ oooOOOOOOOOOOOooo ====  o ### ========$$$",
"=======$$ ##### ====== oooOOOOOOOOOOOooo ====$$ ##### =$$$======",
"===$$$$== ##### $$$$== oooOOOOOOOOOOOooo $$$$== ##### =====$$$$$",
"========= ##### ===== ooooO         Oooo ====== ##### ==========",
"$$$$$$$$$ #### $$$$$ ooooO ::::::::: Oooo $$$$$$ #### $$$$$$$$$$",
"@@@@@@@@@@    @@@@@@ ooooO :  :: : : OOoo @@@@@@@    @@@@@@@@@@@",
"@@@@@@@@@@@@@@@@@@@ ooooOO ::: :: :: OOooo @@@@@@@@@@@@@@@@@@@@@",
"$$$$$$$$$$$$$$$$$$ oooooOO ::::::::: OOoooo $$$$$$@@$$$$$$$$$$$$",
"=================== oooOOOO         OOOOooo =====$@@$===========",
"$$$$$=============== ooOOOOOOOOOOOOOOOOOoo ======$@@$$$$========",
"=====$$$$$$=====$$$$$    OOOOOOOOOOOOO    ====$$$$@@$====$$$$$$$",
"===========$$$$$=========             ===$$$$$===$@@$$$$$=======",
"$$$====$$===============$ ooo === ooo ========$$$$@@$=========$$",
"===$$$$==========$$$$==== ooo === ooo $$=========$@@$===========",
"===========$$$=========  oooo ==$ oooo  =========$@@$$$$$===$$$=",
"$$$$$$==$$$=======$$$$ oooooo $$= oooooo ====$$$$$@@$====$$$===$",
"======$$======$$$$=== oooooo ===== oooooo $$$====$@@$===========",
"============$$========      =======      ========$@@$$$$$$$$$===",
"$$$$$=$$$$========$$$$$$$$$$====$$$==$$=====$$$$$$@@$=======$$$$",
"=================================================$@@$===========",
"$$$$$$$$$$$$$$$$$$$$$$$$$$$$$$$$$$$$$$$$$$$$$$$$$$@@$$$$$$$$$$$$",
"@@@@@@@@@@@@@@@@@@@@@@@@@@@@@@@@@@@@@@@@@@@@@@@@@@@@@@@@@@@@@@@@"
};
