/* XPM */
static char *d88eb40b5ef4439cec3d2dfb2435a192nZ7lPAQ792ylQ32P[] = {
/* columns rows colors chars-per-pixel */
"64 64 11 1 ",
"  c black",
". c #9E3C43",
"X c #996160",
"o c #E6535C",
"O c #C78D6D",
"+ c #3A4791",
"@ c #6E7EDB",
"# c #F78B92",
"$ c #E2A789",
"% c #919DE6",
"& c #CFC6CF",
/* pixels */
"XXXXXXXXXXXXXXXXXXXXXXXXXXXXXXXXXXXXXXXXXXXXXXXXXXXXXXXXXXXXXXXX",
"OOOOOOOOOOOOOXXOOOOOOOOOOOOOOOOOOOOOOOOOOOOOOOOOOOOOOOOOOOOOOOOO",
"$$$$$$$$$$$$OXXO$$$$$$$$$$$$$$$$$$$$$$$$$$$$$$$$$$$$$$$$$$$$$$$$",
"OOO$$OO$$$$$OXXO$$$$$$$$$OOOOOOOO$$$$$$$$OOOOOOOOOOO$$$$OO$$$$$O",
"$$$$$$$OOO$$OXXOOOOOOOOO$$$$$$$$$$$$$$$$$$$$$$$$$$$$$$$$$$OO$OO$",
"$$$$$$$$$$$$OXXO$$$$$$$$$$$$$$$$$$OOOOOOOOO$$O$OOOOOOOOO$$$$$$$$",
"$$$$$$$OOOOOOXXO$$$$$$$OOO$$OOO$$$$$$$$$$$$$$$$$$$$$$$$$$$$$$$$$",
"$$$OOOO$$$$$OXXOOOOOO$$$$$$$$$$$$$$$$$$$$$$$$$$$$$$$$$$$$OOO$$$$",
"OO$$$$$$$$$$OXXO$$$$$OOOOOOO$$$$$$$$$OOOO$$$$$$OOOOOOO$$$$$$OOOO",
"$$$$$$$$$$$$OXXO$$$$$$$$$$$$$$$$$$$$$$$$$$$$$$$$$$$$$$OOO$$$$$$$",
"$$$$$$OOOOOOOXXO$$$$$$$$$$$$$$OOOOO$$$$$$$OOOOOO$$$$$$$$$$$$$$$$",
"OOOOOO$$$$$$OXXOOOOOO$$$OOOOOO$$$$$OOOOOOO$$$$$$OOOOO$$$$$$$$OOO",
"$$$$$$OOOOOOOXXO$$$$$$$$$$$$$$OOOOO$$$$$$$$$$$$$$$$$$OOOO$$OO$$$",
"$$$$$$$$$$$$OXXO$$$$$$$$$$$$$$$$$$$$$$$$$$$$$$$$$$$$$$$$$$$$$$$$",
"OOOOOOOOOOOOOXXOOOOOOOOOOOOOOOOOOOOOOOOOOOOOOOOOOOOOOOOOOOOOOOOO",
"XXXXXXXXXXXXXXXXXXXXXXXXXXXXXXXXXXXXXXXXXXXXXXXXXXXXXXXXXXXXXXXX",
"XXXXXXXXXXXXXXXXXXXXXXXXXXXXXXXXXXXXXXXXXXXXXXXXXXXXXXXXXXXXXXXX",
"OXXOOOOOOOOOOOOOOOOOOOOOOOOOOOOOOOOOOOOOOOOOOOOOOOOOOOOOOOOOOOOO",
"OXXO$$$$$$$$$$$$$$$$$$$$$$$$$$$$$$$$$$$$$$$$$$$$$$$$$$$$$$$$$$$$",
"OXXO$$$$$$$OOOO$$$$$$$$$$$$$OOOOO$OOOOOOOO$$$$$$$$$$$$$$$$$$$OOO",
"OXXOOOOOO$$$$$$$$OOOOOO$$$$$$$$$$$$$$$$$$$$$$$$$OOOOO$$$$$$$$$$$",
"OXXO$$$$$OOOOOOOO$$$$$$OOOO$$$$$$$$$$$$$$$$$$OOO$$$$$$OOOO$$$$$$",
"OXXO$$$$$$$$$$$$$OOOOOO$    OOOOOO$$$$$$$$$OO$$$$$$$$$$$$$$OOO$$",
"OXXO$$$$$$$$$$$$$$$$$   oooo   $$$$OOOOOO$O$$$$$$$$$$$$$$$$$$$$$",
"OXXO$$$$$$$$$$$$$$   ooooooooo    $$$$$$$$$$$$$$OOOOOOO$$$$$$$$O",
"OXXO$$$$$$$$OOO   ooooooooooooooo   $$$$$$$$$$$O$$$$$$$$$OOOO$$$",
"OXXO$OOOOOO$   oooooooooooooooooooo    $$$$OOOO$$$$$$$$$$$$$$OOO",
"OXXO$$$$$   ##oooooooooooooooooooooooo   $$$$$$$$OOOOOOO$$$$$$$$",
"OXXO$$$$$ ..####ooooooooooooooooooooooooo  $OOOOO$$$$$$$OOOOO$$$",
"OXXO$$$$$ ....####ooooooooooooooooooooo@@@@   $$$$$$$$$$$$$$$$$$",
"OXXOOOOOO ......####ooooooooooooooooo@@@@@@@@@  OOOOOOOOOOOOOOOO",
"XXXXXXXXX ........####oooooooooooo@@@@@@@@@@@@@@   XXXXXXXXXXXXX",
"XXXXXXXXX ..........####oooooooo@@@@@@@@@@@@@@@@@@@  XXXXXXXXXXX",
"OOOOOOOOOO &&..........###oooooo@@@@@@@@@@@@@@@@@@@%%  OOOOOOOOO",
"$$$$$$$$$$ &&&&..........###o@@@@@@@@@@@@@@@@@@@@%%%%+ $$$$$$$$$",
"$$$$$OOO$$ ..&&&&&.........#%%%@@@@@@@@@@@@@@@@%%%%+++ OOOO$$$$$",
"OOOO$$$$OOO ...&&&&&&.......+%%%%@@@@@@@@@@@@%%%%+++++ $$$$OOOOO",
"$$$$$$$$$$$ ......&&&&&.....++++%%%%@@@@@@@%%%%++++++++ $$$$$$$$",
"$$$$$$$$$$$ .........&&&&&..++++++%%%%@@@%%%%+++++++++& O$$$OOO$",
"$$$OOOOOOOOO ..........&&&&&++++++++%%%%%%%+++++++++&&& $OO$$$$$",
"OOO$$$$$$$$$$  ...........&&&&&+++++++%%%+++++++++&&&&+ $$$$$$$$",
"$$$$OOOOOOOOOOO   .........+&&&&&+++++++++++++++&&&&+++ OOOOO$$$",
"OOOO$$$$$$$$$$$$$O   ......++++&&&&&++++++++++&&&&+++++ $$$$$OOO",
"$$$$$$$OOO$OOOOO$$$$$   ...++++++&&&&&&+++++&&&&++++++++ O$$$$$$",
"$$$OOOO$$$$$$$$$OOOO$$$$   +++++++++&&&&&++&&&++++++++++ $$OOOOO",
"$$$$$$$$$$$$$$$$$$$$$$$$$$$   +++++++++&&&&&++++++++++   $$$$$$$",
"OOOOOOOOOOOOOOOOOOOOOOOOOOOOOO   ++++++++&&++++++++   OOOOOOOOOO",
"XXXXXXXXXXXXXXXXXXXXXXXXXXXXXXXXX   ++++++++++++   XXXXXXXXXXXXX",
"XXXXXXXXXXXXXXXXXXXXXXXXXXXXXXXXXXXX   ++++++   XXXXXXXXXXXXXXXX",
"OOOOOOOOOOOOOOOOOOOOOOOOOOOOOOOOOOOOOOO  ++  OOOOOXXOOOOOOOOOOOO",
"$$$$$$$$$$$$$$$$$$$$$$$$$$$$$$$$$$$$$$$$$  $$$$$$OXXO$$$$$$$$$$$",
"OOOOO$$$$$$$$$$$$$$$$$$$$OOOO$$$$OOOO$$$$$$$$$$$$OXXOOOO$$$$$$$$",
"$$$$$OOOOOO$$$$$OOOOOOOO$$$$$OOOO$$$$OOOO$$$$$OOOOXXO$$$$OOOOOOO",
"$$$$$$$$$$$OOOOO$$$$$$$$$$$$$$$$$$$$$$$$$OOOOO$$$OXXOOOOO$$$$$$$",
"OOO$$$$OO$$$$$$$$$$$$$$$OOOOO$$$$$OOOO$$$$$$$$OOOOXXO$$$$$$$$$OO",
"$$$OOOO$$$$$$$$$$OOOO$$$$$$$$$$$$$$$$$OO$$$$$$$$$OXXO$$$$$$$$$$$",
"$$$$$$$$$$$OOO$$$$$$$$$OOO$$$$$$OOOOO$$$$$$$$$$$$OXXOOOOO$$$OOO$",
"OOOOOO$$OOO$$$$$$$OOOOO$$$OOOOOO$$$$$OOOO$$$$OOOOOXXO$$$$OOO$$$O",
"$$$$$$OO$$$$$$OOOO$$$$$OOO$$$$$$$$$$$$$$$OOOO$$$$OXXO$$$$$$$$$$$",
"$$$$$$$$$$$$OO$$$$$$$$$$$$$$$$$$$$$OO$$$$$$$$$$$$OXXOOOOOOOOO$$$",
"OOOOO$OOOO$$$$$$$$OOOOOOOOOO$$$$OOO$$OO$$$$$OOOOOOXXO$$$$$$$OOOO",
"$$$$$$$$$$$$$$$$$$$$$$$$$$$$$$$$$$$$$$$$$$$$$$$$$OXXO$$$$$$$$$$$",
"OOOOOOOOOOOOOOOOOOOOOOOOOOOOOOOOOOOOOOOOOOOOOOOOOOXXOOOOOOOOOOOO",
"XXXXXXXXXXXXXXXXXXXXXXXXXXXXXXXXXXXXXXXXXXXXXXXXXXXXXXXXXXXXXXXX"
};
