/* XPM */
static char *_74e331733474e858fe15260dbb3cd5djHOidaM9VQ5dh4dr[] = {
/* columns rows colors chars-per-pixel */
"64 64 18 1 ",
"  c black",
". c gray46",
"X c #996160",
"o c #C78D6D",
"O c #6A7194",
"+ c #7B84AB",
"@ c #8A8D99",
"# c gray62",
"$ c #8891B4",
"% c #959DBC",
"& c #A4A3B5",
"* c #A1A6BF",
"= c #E2A789",
"- c #A3A9C4",
"; c #BFBFCB",
": c #C3C3C3",
"> c #D2D2DB",
", c gray87",
/* pixels */
"XXXXXXXXXXXXXXXXXXXXXXXXXXXXXXXXXXXXXXXXXXXXXXXXXXXXXXXXXXXXXXXX",
"oooooooooooooXXooooooooooooooooooooooooooooooooooooooooooooooooo",
"============oXXo=============     ==============================",
"ooo==oo=====oXXo=========ooo *O*O* ======ooooooooooo====oo=====o",
"=======ooo==oXXooooooooo==== *O*O* =======================oo=oo=",
"============oXXo============ *O*O* oooooooo==o=ooooooooo========",
"=======ooooooXXo=======ooo== *O*O* =============================",
"===oooo=====oXXoooooo======= *O*O* ======================ooo====",
"oo==========oXXo=====ooooooo *O*O* ==oooo======ooooooo======oooo",
"============oXXo============ *O*O* ===================ooo=======",
"======oooooooXXo============ *O*O* =======oooooo================",
"oooooo======oXXoooooo===ooo         oooooo======ooooo========ooo",
"======oooooooXXo========== +++$$$--+ ================oooo==oo===",
"============oXXo========== +++$$$--+ ===========================",
"oooooooooooooXXoooooooooo             oooooooooooooooooooooooooo",
"XXXXXXXXXXXXXXXXXXXXXXXXX &;>>>>>>>>> XXXXXXXXXXXXXXXXXXXXXXXXXX",
"XXXXXXXXXXXXXXXXXXXXXXXXX &&&&&&;;;;> XXXXXXXXXXXXXXXXXXXXXXXXXX",
"oXXoooooooooooooooooooooo &&&&&&&;;;> oooooooooooooooooooooooooo",
"oXXo===================== &&&&   ;;;> ==========================",
"oXXo=======oooo========== &&& :,, ;;> oooo===================ooo",
"oXXoooooo========oooooo== &&& ::, ;;> ==========ooooo===========",
"oXXo=====oooooooo======oo &&& ::: ;;> =======ooo======oooo======",
"oXXo=============oooooo== &&&&   ;;;>  ====oo==============ooo==",
"oXXo==================== + &&&&;;;;; +% o=o=====================",
"oXXo==================== ++  &;;;;  ++% ========ooooooo========o",
"oXXo========ooooooo==== %+++      = ++%% ======o=========oooo===",
"oXXo=oooooo========ooo %%++ ======== ++%% =oooo==============ooo",
"oXXo================== %+++ oo====== +++% =======ooooooo========",
"oXXo=========oooo=ooo %%++ =======ooo +++% =ooooo=======ooooo===",
"oXXo================ %%++ ============ ++%% ====================",
"oXXooooooooooooooooo %+++ oooooooooooo +++% oooooooooooooooooooo",
"XXXXXXXXXXXX XXXXXX %+++ XXXXXXXXXXXXXX ++%% XXXXXX XXXXXXXXXXXX",
"XXXXXXXXXXX :      %%++                  ++%%      : XXXXXXXXXXX",
"ooooooooooo :.:::: %++ ##::::::::::::::## ++% ::::.: ooooooooooo",
"=========== :     %+++                    ++%%     : ===========",
"=====ooo==== === %%++ ====ooo==ooooXXo=ooo +++% === ==ooooo=====",
"oooo====oooo==== %++ ooo==========oXXoo==== ++% oooo=======ooooo",
"============ooo %%++ =======oooooooXXo==oo= ++%% ===============",
"============== %%++ ===oooo=======oXXo====oo ++%% ooooooo===ooo=",
"===oooooooooo %%++ =ooo===========oXXooo===== ++%% ======oo=====",
"ooo========== %+++ o=========ooooooXXo==ooooo +++% =oooo========",
"====oo ooooo %%++ ====    o o= =   X     ===== ++%% ====o ooo===",
"oooo= : === %%++ ooooo ==== =o oo oXXo ======== ++%% === : ==ooo",
"==== ::: o= %+++ =====   ooo  === oXXo ======oo +++% == ::: ====",
"=== ::: == %+++ oooo== ==== =o oo oXXo oooooo=== ++%% == ::: ooo",
"== ::::   %%++ =======    = == =   XXo ========== ++%%   :::: ==",
"o :::: ## %+++ ooooooooooooooooooooXXoooooooooooo +++% ## :::: o",
"XX :  ## %%++ XXXXXXXXXXXXXXXXXXXXXXXXXXXXXXXXXXXX ++%% ##  : XX",
"XXX X # %%++ XXXXXXXXXXXXXXXXXXXXXXXXXXXXXXXXXXXXXX ++%% # X XXX",
"ooooo # %++ ooooooooooooooooooooooooooooooooooooooXX +%% # ooooo",
"====== %+++ =====================================oXX ++%% ======",
"ooooo %%++ ==============oooo====oooo============oXXo ++%% =====",
"===== %++ o=====oooooooo=====oooo====oooo=====ooooXXo= ++% ooooo",
"==== %%++ =ooooo=========================ooooo===oXXoo ++%% ====",
"ooo=     ===============ooooo=====oooo========ooooXXo==     ==oo",
"===o @@ =========oooo=================oo=========oXXo=== @@ ====",
"==== @ ====ooo=========ooo======ooooo============oXXooooo @ ooo=",
"oooo  ==ooo=======ooooo===oooooo=====oooo====oooooXXo====o  ===o",
"==== =oo======oooo=====ooo===============oooo====oXXo====== ====",
"============oo=====================oo============oXXooooooooo===",
"ooooo=oooo========oooooooooo====ooo==oo=====ooooooXXo=======oooo",
"=================================================oXXo===========",
"ooooooooooooooooooooooooooooooooooooooooooooooooooXXoooooooooooo",
"XXXXXXXXXXXXXXXXXXXXXXXXXXXXXXXXXXXXXXXXXXXXXXXXXXXXXXXXXXXXXXXX"
};
