/* XPM */
static char *fea01aa9cecb456fb12bdb4ef50a71d8PnpUzWzublZgmtKk[] = {
/* columns rows colors chars-per-pixel */
"64 64 24 1 ",
"  c black",
". c #421366",
"X c #4F1678",
"o c #52514C",
"O c #C21922",
"+ c #DE1B24",
"@ c #ED1C24",
"# c #996160",
"$ c #259946",
"% c #28AD4E",
"& c #28B04F",
"* c #2BBD55",
"= c #DBCD00",
"- c #F2E200",
"; c #FFF200",
": c #B09674",
"> c #C78D6D",
", c #5A1787",
"< c #4362D1",
"1 c #4969E6",
"2 c #4D6DF3",
"3 c #CCAE87",
"4 c #DBBB8F",
"5 c #E2A789",
/* pixels */
"################################################################",
">>>>>>>>>>>>>##>>>>>>>>>>>>>>>>>>>>>>>>>>>>>>>>>>>>>>>>>>>>>>>>>",
"555555555555>##>555555555555555555555555555555555555555555555555",
">>>55>> 5555>##>5555 5555>>>>>>>>55555555>>>> >>>>>>5555>> 5555>",
"555555 @ >55>##>>>> ; >>55555555  5555555555 2 5555555555 , 5>>5",
"55555 +@+ 55>##>55 -;- 55555555 ** >>>>>>>> <2< >>>>>>>> X,X 555",
"55555 +@+ >>>##>55 -;- >>>55>> &**& 5555555 <2< 55555555 X,X 555",
"555> 34443 5>##>> 34443 555555 3443 555555 34443 555555 34443 55",
">>5 3344433 >##> 3344433 >>>5 344443 >>>> 3344433 >>>> 3344433 >",
"555 3444443 >##> 3444443 5555 344443 5555 3444443 5555 3444443 5",
"55 :3444443: ## :3444443: 55 :344444: 55 :3444443: 55 :3444443: ",
">> :4444444: ## :4444444: >> :444444: >> :4444444: >> :4444444: ",
"55  4444444  ##  4444444  55  4 44 4  55  4444444  55  4444444  ",
"55 O 4 4 4 O ## = 4 4 4 = 55 $ %  % $ 55 < 4 4 4 < 55 . 4 4 4 . ",
">> O+ @ @ +O ## =- ; ; -= >> $%%**%%$ >> <1 2 2 1< >> .X , , X. ",
"## O++@@@++O ## =--;;;--= ## $%%**%%$ ## <1122211< ## .XX,,,XX. ",
"## O++@@@++O ## =--;;;--= ## $%%**%%$ ## <1122211< ## .XX,,,XX. ",
"># O++@@@++O >> =--;;;--= >> $%%**%%$ >> <1122211< >> .XX,,,XX. ",
"># O++@@@++O 55 =--;;;--= 55 $%%**%%$ 55 <1122211< 55 .XX,,,XX. ",
"># O++@@@++O >> =--;;;--= 55 $%%**%%$ >> <1122211< 55 .XX,,,XX. ",
"># O++@@@++O 55 =--;;;--= 55 $%%**%%$ 55 <1122211< >> .XX,,,XX. ",
"># O++@@@++O >> =--;;;--= >5 $%%**%%$ 55 <1122211< 55 .XX,,,XX. ",
"># O++@@@++O 55 =--;;;--= 5> $%%**%%$ 55 <1122211< 55 .XX,,,XX. ",
"># O+o@ooo+O 55 =-o;ooo-= 55 $%o**o%$ >> <1o2ooo1< 55 .Xo,oooX. ",
"># O+o@o@o+O 55 =-o;o;o-= >> $o%*o%o$ 55 <1o2o2o1< >> .Xo,o,oX. ",
"># O+o@@@o+O >> =-o;;;o-= 55 $o%o*%o$ 55 <1o222o1< 55 .Xo,,,oX. ",
"># O++ooo++O 55 =--ooo--= 55 $%o**o%$ 55 <11ooo11< 55 .XXoooXX. ",
"># O++@@@++O 55 =--;;;--= >> $%%**%%$ 55 <1122211< >> .XX,,,XX. ",
"># O+ooooo+O >> =-ooooo-= 55 $%oooo%$ >> <1ooooo1< 55 .XoooooX. ",
"># O++@o@++O 55 =--;o;--= 55 $o%**%o$ 55 <112o211< 55 .XX,o,XX. ",
"># O++o@@++O >> =--o;;--= >> $o%**%o$ >> <11o2211< >> .XXo,,XX. ",
"## O+ooooo+O ## =-ooooo-= ## $%oooo%$ ## <1ooooo1< ## .XoooooX. ",
"## O++@@@++O ## =--;;;--= ## $%%**%%$ ## <1122211< ## .XX,,,XX. ",
">> O++ooo++O >> =--ooo--= >> $%%**%o$ >> <11ooo11< >> .XXoooXX. ",
"55 O+o@@@o+O 55 =-o;;;o-= 55 $%%**%o$ 55 <1o222o1< 55 .Xo,,,oX. ",
"55 O+o@@@o+O 55 =-o;;;o-= >> $%%**%o$ 5> <1o222o1< 55 .Xo,,,oX. ",
">> O++ooo++O 55 =--ooo--= 55 $oooooo$ >5 <11ooo11< >5 .XXoooXX. ",
"55 O++@@@++O >> =--;;;--= 55 $%%**%%$ 55 <1122211< 55 .XX,,,XX. ",
"55 O++@@@o+O 55 =--;;;o-= >5 $%%*o%%$ 55 <11222o1< >> .XX,,,oX. ",
"55 O++@@@o+O >> =--;;;o-= 55 $%%*o%%$ >> <11222o1< 55 .XX,,,oX. ",
">> O+ooooo+O 55 =-ooooo-= 55 $%%*o%%$ 55 <1ooooo1< 5> .XoooooX. ",
"55 O++@@@++O >> =--;;;--= >> $%%*o%%$ 55 <1122211< 55 .XX,,,XX. ",
">> O++@@@o+O 55 =--;;;o-= 55 $%%**%%$ 55 <11222o1< 55 .XX,,,oX. ",
"55 O++@@@o+O >> =--;;;o-= >> $o%**%o$ 55 <11222o1< 55 .XX,,,oX. ",
"55 O++@@@o+O 55 =--;;;o-= 55 $o%o*%o$ >> <11222o1< >> .XX,,,oX. ",
"55 O++@@@o+O 55 =--;;;o-= 55 $o%o*%o$ 55 <11222o1< 55 .XX,,,oX. ",
">> O++@@@++O >> =--;;;--= >> $oooooo$ >> <1122211< >> .XX,,,XX. ",
"## O++ooo++O ## =--ooo--= ## $%%**%%$ ## <11ooo11< ## .XXoooXX. ",
"## O+o@@@o+O ## =-o;;;o-= ## $%oooo%$ ## <1o222o1< ## .Xo,,,oX. ",
">> O+o@@@o+O >> =-o;;;o-= >> $o%**%o$ >> <1o222o1< #> .Xo,,,oX. ",
"55 O++ooo++O 55 =--ooo--= 55 $o%**%o$ 55 <11ooo11< #> .XXoooXX. ",
">> O++@@@++O 55 =--;;;--= >> $oooooo$ 55 <1122211< #> .XX,,,XX. ",
"55 O+o@@o++O 55 =-o;;o--= 55 $%%**%%$ >> <1o22o11< #> .Xo,,oXX. ",
"55 O+o@o@o+O >> =-o;o;o-= 55 $o%**%o$ 55 <1o2o2o1< #> .Xo,o,oX. ",
">> O+o@o@o+O 55 =-o;o;o-= >> $o%o*%o$ 55 <1o2o2o1< #> .Xo,o,oX. ",
"55 O++o@@o+O 55 =--o;;o-= 55 $o%o*%o$ >> <11o22o1< #> .XXo,,oX. ",
"55 O++@@@++O >5 =--;;;--= 55 $oooooo$ 55 <1122211< #> .XX,,,XX. ",
">> O++@@@++O 55 =--;;;--= >> $%%**%%$ >> <1122211< #> .XX,,,XX. ",
"55 O++@@@++O 5> =--;;;--= 55 $%o**o%$ 55 <1122211< #> .XX,,,XX. ",
"55 O++@@@++O >5 =--;;;--= 55 $o%*o%o$ 55 <1122211< #> .XX,,,XX. ",
">> O++@@@++O 55 =--;;;--= >> $o%o*%o$ >5 <1122211< #> .XX,,,XX. ",
"55 O++@@@++O 55 =--;;;--= 55 $%o**o%$ 55 <1122211< #> .XX,,,XX. ",
">>> ++@@@++ >>>> --;;;-- >>>> %%**%% >>>> 1122211 ##>> XX,,,XX >",
"####       ######       ######      ######       ######       ##"
};
