/* XPM */
static char *d0c518f2560b44f4ca6638436c24cdbaCOjNn1Qt43DAfKCx[] = {
/* columns rows colors chars-per-pixel */
"64 64 2 1 ",
"  c black",
". c #51F709",
/* pixels */
"                                                                ",
"                                                                ",
"                                                                ",
"                                                                ",
"                          ..                                    ",
"                          ..                                    ",
"          ..                                      ..            ",
"          ..                                      ..            ",
"                                                                ",
"                                                                ",
"                                ..                              ",
"                                ..                              ",
"                                                                ",
"                                                                ",
"                        ..                                      ",
"                        ..                                      ",
"                                              ..                ",
"                                              ..                ",
"                        ..................                      ",
"                        ..................                      ",
"                        ..                                      ",
"                        ..                                      ",
"                        ..                            ..        ",
"                        ..                            ..        ",
"                        ..                                      ",
"                        ..                                      ",
"      ..                ..                                      ",
"      ..                ..                                      ",
"                        ..                                      ",
"                        ..                                      ",
"                        ..............                          ",
"                        ..............                          ",
"                        ..                                      ",
"                        ..                                      ",
"                        ..                    ..                ",
"                        ..                    ..                ",
"                        ..                            ..        ",
"                        ..                            ..        ",
"                        ..                                      ",
"                        ..                                      ",
"                        ..                                      ",
"                        ..                                      ",
"                        ..................                      ",
"                        ..................                      ",
"            ..                                                  ",
"            ..                                                  ",
"                          ..                          ..        ",
"                          ..                          ..        ",
"                                                                ",
"                                                                ",
"                                        ..                      ",
"                                        ..                      ",
"                ..                                              ",
"                ..                                              ",
"                                                                ",
"                                                                ",
"                              ..            ..                  ",
"                              ..            ..                  ",
"                                                                ",
"                                                                ",
"                                                                ",
"                                                                ",
"                                                                ",
"                                                                "
};
