/* XPM */
static char *_1b24e0ff2be4961fc21a43a26f6d86dqa7akvNHUWY02G5b[] = {
/* columns rows colors chars-per-pixel */
"64 64 5 1 ",
"  c black",
". c #FF5400",
"X c #FF7600",
"o c #FF8D00",
"O c #FF00AE",
/* pixels */
"                                                                ",
"                                                                ",
"  OOOOOOOOOOOOOOOOOOOOOOOOOOOOOOOOOOOOOOOOOOOOOOOOOOOOOOOOOOOO  ",
"  OOOOOOOOOOOOOOOOOOOOOOOOOOOOOOOOOOOOOOOOOOOOOOOOOOOOOOOOOOOO  ",
"  OOOOOOOOOOOOOOOOOOOOOOOOOOOOOOOOOOOOOOOOOOOOOOOOOOOOOOOOOOOO  ",
"  OOOOOOOOOOOOOOOOOOOOOOOOOOOOOOOOOOOOOOOOOOOOOOOOOOOOOOOOOOOO  ",
"  OOOOOOOOOOOOOOOOOOOOOOOOOOOOOOOOOOOOOOOOOOOOOOOOOOOOOOOOOOOO  ",
"  OOOOOOOOOOOOOOOOOOOOOOOOOOOOOOOOOOOOOOOOOOOOOOOOOOOOOOOOOOOO  ",
"  OOOOOOOOOOOOOOOOOOOOOOOOOOOOOOOOOOOOOOOOOOOOOOOOOOOOOOOOOOOO  ",
"  OOOOOOOOOOOOOOOOOOOOOOOOOOOOOOOOOOOOOOOOOOOOOOOOOOOOOOOOOOOO  ",
"  OOOOOOOOOOOOOOOOOOOOOOOOOOOOOOOOOOOOOOOOOOOOOOOOOOOOOOOOOOOO  ",
"  OOOOOOOOOOOOOOOOOOOOOOOOOOOOOOOOOOOOOOOOOOOOOOOOOOOOOOOOOOOO  ",
"  OOOOOOOOOOOOOOOOOOOOOOOOOOOOOOOOOOOOOOOOOOOOOOOOOOOOOOOOOOOO  ",
"  OOOOOOOOOOOOOOOOOOOOOOOOOOOOOOOOOOOOOOOOOOOOOOOOOOOOOOOOOOOO  ",
"  OOOOOOOOOOOOOOOOOOooXXOOOOOOOOOOOOOOOOOOOOOOOOOOOOOOOOOOOOOO  ",
"  OOOOOOOOOOOOOOOOOOooXXOOOOOOOOOOOOOOOOOOOOOOOOOOOOOOOOOOOOOO  ",
"  OOOOOOOOOOOOOOOOOOooXXOOOOOOOOooXXOOOOOOOOOOOOOOOOOOOOOOOOOO  ",
"  OOOOOOOOOOOOOOOOOOooXXOOOOOOOOooXXOOOOOOOOOOOOOOOOOOOOOOOOOO  ",
"  OOOOOOOOOOOOOOOOOOooXXOOOOOOOOooXXOOOOOOOOOOOOOOOOOOOOOOOOOO  ",
"  OOOOOOOOOOOOOOOOOOooXXOOOOOOOOooXXOOOOOOOOOOOOOOOOOOOOOOOOOO  ",
"  OOOOOOOOOOOOOOOOOOooXXOOOOOOOOooXXOOOOOOOOOOOOOOOOOOOOOOOOOO  ",
"  OOOOOOOOOOOOOOOOOOooXXOOOOOOOOooXXOOOOOOOOOOOOOOOOOOOOOOOOOO  ",
"  OOOOOOOOOOOOOOOOOOooXXooOOOOXXooXXOOOOOOOOOOOOOOOOOOOOOOOOOO  ",
"  OOOOOOOOOOOOOOOOOOooXXooOOOOXXooXXOOOOOOOOOOOOOOOOOOOOOOOOOO  ",
"  OOOOOOOOOOOOOOOOOOoo..ooXXooXX..XXOOOOOOOOOOOOOOOOOOOOOOOOOO  ",
"  OOOOOOOOOOOOOOOOOOoo..ooXXooXX..XXOOOOOOOOOOOOOOOOOOOOOOOOOO  ",
"  OOOOOOOOOOOOOOOOOOXX..ooXXooXX..ooOOOOOOOOOOOOOOOOOOOOOOOOOO  ",
"  OOOOOOOOOOOOOOOOOOXX..ooXXooXX..ooOOOOOOOOOOOOOOOOOOOOOOOOOO  ",
"  OOOOOOOOOOOOOOOOOOoo..ooXXooXX..ooOOOOOOOOOOOOOOOOOOOOOOOOOO  ",
"  OOOOOOOOOOOOOOOOOOoo..ooXXooXX..ooOOOOOOOOOOOOOOOOOOOOOOOOOO  ",
"  OOOOOOOOOOOOOOOOXXXXXXXX......ooooOOOOOOOOOOOOOOOOOOOOOOOOOO  ",
"  OOOOOOOOOOOOOOOOXXXXXXXX......ooooOOOOOOOOOOOOOOOOOOOOOOOOOO  ",
"  OOOOOOOOOOOOOOOOXXXXXXXX....ooooooOOOOOOOOOOOOOOOOOOOOOOOOOO  ",
"  OOOOOOOOOOOOOOOOXXXXXXXX....ooooooOOOOOOOOOOOOOOOOOOOOOOOOOO  ",
"  OOOOOOOOOOOOOOOOOOXXXXoooo..ooooooOOOOOOOOOOOOOOOOOOOOOOOOOO  ",
"  OOOOOOOOOOOOOOOOOOXXXXoooo..ooooooOOOOOOOOOOOOOOOOOOOOOOOOOO  ",
"  OOOOOOOOOOOOOOOOOOXXXXooooooooooOOOOOOOOOOOOOOOOOOOOOOOOOOOO  ",
"  OOOOOOOOOOOOOOOOOOXXXXooooooooooOOOOOOOOOOOOOOOOOOOOOOOOOOOO  ",
"  OOOOOOOOOOOOOOOOOOOOOOooooooooooOOOOOOOOOOOOOOOOOOOOOOOOOOOO  ",
"  OOOOOOOOOOOOOOOOOOOOOOooooooooooOOOOOOOOOOOOOOOOOOOOOOOOOOOO  ",
"  OOOOOOOOOOOOOOOOOOOOOOOOooooooooOOOOOOOOOOOOOOOOOOOOOOOOOOOO  ",
"  OOOOOOOOOOOOOOOOOOOOOOOOooooooooOOOOOOOOOOOOOOOOOOOOOOOOOOOO  ",
"  OOOOOOOOOOOOOOOOOOOOOOOOooooooooOOOOOOOOOOOOOOOOOOOOOOOOOOOO  ",
"  OOOOOOOOOOOOOOOOOOOOOOOOooooooooOOOOOOOOOOOOOOOOOOOOOOOOOOOO  ",
"  OOOOOOOOOOOOOOOOOOOOOOOOooooooooooOOOOOOOOOOOOOOOOOOOOOOOOOO  ",
"  OOOOOOOOOOOOOOOOOOOOOOOOooooooooooOOOOOOOOOOOOOOOOOOOOOOOOOO  ",
"  OOOOOOOOOOOOOOOOOOOOOOOOooooooooooOOOOOOOOOOOOOOOOOOOOOOOOOO  ",
"  OOOOOOOOOOOOOOOOOOOOOOOOooooooooooOOOOOOOOOOOOOOOOOOOOOOOOOO  ",
"  OOOOOOOOOOOOOOOOOOOOOOOOooooooooooOOOOOOOOOOOOOOOOOOOOOOOOOO  ",
"  OOOOOOOOOOOOOOOOOOOOOOOOooooooooooOOOOOOOOOOOOOOOOOOOOOOOOOO  ",
"  OOOOOOOOOOOOOOOOOOOOOOOOooooooooooOOOOOOOOOOOOOOOOOOOOOOOOOO  ",
"  OOOOOOOOOOOOOOOOOOOOOOOOooooooooooOOOOOOOOOOOOOOOOOOOOOOOOOO  ",
"  OOOOOOOOOOOOOOOOOOOOOOOOooooooooooOOOOOOOOOOOOOOOOOOOOOOOOOO  ",
"  OOOOOOOOOOOOOOOOOOOOOOOOooooooooooOOOOOOOOOOOOOOOOOOOOOOOOOO  ",
"  OOOOOOOOOOOOOOOOOOOOOOOOooooooooooOOOOOOOOOOOOOOOOOOOOOOOOOO  ",
"  OOOOOOOOOOOOOOOOOOOOOOOOooooooooooOOOOOOOOOOOOOOOOOOOOOOOOOO  ",
"  OOOOOOOOOOOOOOOOOOOOOOooooooooooooOOOOOOOOOOOOOOOOOOOOOOOOOO  ",
"  OOOOOOOOOOOOOOOOOOOOOOooooooooooooOOOOOOOOOOOOOOOOOOOOOOOOOO  ",
"  OOOOOOOOOOOOOOOOOOOOOOooooooooooooOOOOOOOOOOOOOOOOOOOOOOOOOO  ",
"  OOOOOOOOOOOOOOOOOOOOOOooooooooooooOOOOOOOOOOOOOOOOOOOOOOOOOO  ",
"  OOOOOOOOOOOOOOOOOOOOOOooooooooooooOOOOOOOOOOOOOOOOOOOOOOOOOO  ",
"  OOOOOOOOOOOOOOOOOOOOOOooooooooooooOOOOOOOOOOOOOOOOOOOOOOOOOO  ",
"                                                                ",
"                                                                "
};
