/* XPM */
static char *a5bb1bb2715b479fb49cd4c6443ef1a5B8X2I4fKGhPAk25q[] = {
/* columns rows colors chars-per-pixel */
"64 64 2 1 ",
"  c black",
". c #BD00FF",
/* pixels */
"                                                                ",
"                                                                ",
"                                                                ",
"                                                                ",
"                          ..                                    ",
"                          ..                                    ",
"          ..                                      ..            ",
"          ..                                      ..            ",
"                                                                ",
"                                                                ",
"                                ..                              ",
"                                ..                              ",
"                                                                ",
"                                                                ",
"                        ..                                      ",
"                        ..                                      ",
"                                              ..                ",
"                                              ..                ",
"                ..                    ..                        ",
"                ..                    ..                        ",
"                ....                  ..                        ",
"                ....                  ..                        ",
"                ..  ..                ..              ..        ",
"                ..  ..                ..              ..        ",
"                ..    ..              ..                        ",
"                ..    ..              ..                        ",
"      ..        ..      ..            ..                        ",
"      ..        ..      ..            ..                        ",
"                ..        ..          ..                        ",
"                ..        ..          ..                        ",
"                ..          ..        ..                        ",
"                ..          ..        ..                        ",
"                ..            ..      ..                        ",
"                ..            ..      ..                        ",
"                ..              ..    ..      ..                ",
"                ..              ..    ..      ..                ",
"                ..                ..  ..              ..        ",
"                ..                ..  ..              ..        ",
"                ..                  ....                        ",
"                ..                  ....                        ",
"                ..                    ..                        ",
"                ..                    ..                        ",
"                                                                ",
"                                                                ",
"            ..                                                  ",
"            ..                                                  ",
"                          ..                          ..        ",
"                          ..                          ..        ",
"                                                                ",
"                                                                ",
"                                        ..                      ",
"                                        ..                      ",
"                ..                                              ",
"                ..                                              ",
"                                                                ",
"                                                                ",
"                              ..            ..                  ",
"                              ..            ..                  ",
"                                                                ",
"                                                                ",
"                                                                ",
"                                                                ",
"                                                                ",
"                                                                "
};
