/* XPM */
static char *b85fdf42f62140b2ee881da2f64af12dFgyK539TAtOoZCvK[] = {
/* columns rows colors chars-per-pixel */
"64 64 2 1 ",
"  c black",
". c #F70909",
/* pixels */
"                                                                ",
"                                                                ",
"                                                                ",
"                                                                ",
"                          ..                                    ",
"                          ..                                    ",
"          ..                                      ..            ",
"          ..                                      ..            ",
"                                                                ",
"                                                                ",
"                                ..                              ",
"                                ..                              ",
"                                                                ",
"                                                                ",
"                        ..                                      ",
"                        ..                                      ",
"                                              ..                ",
"                                              ..                ",
"                            ........                            ",
"                            ........                            ",
"                          ....      ..                          ",
"                          ....      ..                          ",
"                        ....          ..              ..        ",
"                        ....          ..              ..        ",
"                        ..                                      ",
"                        ..                                      ",
"      ..                ..                                      ",
"      ..                ..                                      ",
"                        ..                                      ",
"                        ..                                      ",
"                          ..                                    ",
"                          ..                                    ",
"                            ........                            ",
"                            ........                            ",
"                                  ....        ..                ",
"                                  ....        ..                ",
"                                    ..                ..        ",
"                                    ..                ..        ",
"                                    ..                          ",
"                                    ..                          ",
"                                  ....                          ",
"                                  ....                          ",
"                        ............                            ",
"                        ............                            ",
"            ..                                                  ",
"            ..                                                  ",
"                          ..                          ..        ",
"                          ..                          ..        ",
"                                                                ",
"                                                                ",
"                                        ..                      ",
"                                        ..                      ",
"                ..                                              ",
"                ..                                              ",
"                                                                ",
"                                                                ",
"                              ..            ..                  ",
"                              ..            ..                  ",
"                                                                ",
"                                                                ",
"                                                                ",
"                                                                ",
"                                                                ",
"                                                                "
};
