/* XPM */
static char *d1bc6fc50d2b4aa8c5104c92440cb3d1W74NrtXWfUtxzRac[] = {
/* columns rows colors chars-per-pixel */
"64 64 3 1 ",
"  c black",
". c #F70909",
"X c #FF7600",
/* pixels */
"                                                                ",
"                                                                ",
"  XXXXXXXXXXXXXXXXXXXXXXXXXXXXXXXXXXXXXXXXXXXXXXXXXXXXXXXXXXXX  ",
"  XXXXXXXXXXXXXXXXXXXXXXXXXXXXXXXXXXXXXXXXXXXXXXXXXXXXXXXXXXXX  ",
"  XXXXXXXXXXXXXXXXXXXXXXXXXXXXXXXXXXXXXXXXXXXXXXXXXXXXXXXXXXXX  ",
"  XXXXXXXXXXXXXXXXXXXXXXXXXXXXXXXXXXXXXXXXXXXXXXXXXXXXXXXXXXXX  ",
"  XXXXXXXXXXXXXXXXXXXXXXXXXXXXXXXXXXXXXXXXXXXXXXXXXXXXXXXXXXXX  ",
"  XXXXXXXXXXXXXXXXXXXXXXXXXXXXXXXXXXXXXXXXXXXXXXXXXXXXXXXXXXXX  ",
"  XXXXXXXXXXXXXXXXXXXXXXXXXXXXXXXXXXXXXXXXXXXXXXXXXXXXXXXXXXXX  ",
"  XXXXXXXXXXXXXXXXXXXXXXXXXXXXXXXXXXXXXXXXXXXXXXXXXXXXXXXXXXXX  ",
"  XXXXXXXXXXXXXXXXXXXXXXXXXXXXXXXXXXXXXXXXXXXXXXXXXXXXXXXXXXXX  ",
"  XXXXXXXXXXXXXXXXXXXXXXXXXXXXXXXXXXXXXXXXXXXXXXXXXXXXXXXXXXXX  ",
"  XXXXXXXXXXXXXXXXXXXXXXXXXXXXXXXXXXXXXXXXXXXXXXXXXXXXXXXXXXXX  ",
"  XXXXXXXXXXXXXXXXXXXXXXXXXXXXXXXXXXXXXXXXXXXXXXXXXXXXXXXXXXXX  ",
"  XXXXXXXXXXXXXXXXXXXXXXXXXXXXXXXXXXXXXXXXXXXXXXXXXXXXXXXXXXXX  ",
"  XXXXXXXXXXXXXXXXXXXXXXXXXXXXXXXXXXXXXXXXXXXXXXXXXXXXXXXXXXXX  ",
"  XXXXXXXXXXXXXXXX........XXXXXXXXXX........XXXXXXXXXXXXXXXXXX  ",
"  XXXXXXXXXXXXXXXX........XXXXXXXXXX........XXXXXXXXXXXXXXXXXX  ",
"  XXXXXXXXXXXXXX............XXXXXX............XXXXXXXXXXXXXXXX  ",
"  XXXXXXXXXXXXXX............XXXXXX............XXXXXXXXXXXXXXXX  ",
"  XXXXXXXXXXXX................XX................XXXXXXXXXXXXXX  ",
"  XXXXXXXXXXXX................XX................XXXXXXXXXXXXXX  ",
"  XXXXXXXXXX......................................XXXXXXXXXXXX  ",
"  XXXXXXXXXX......................................XXXXXXXXXXXX  ",
"  XXXXXXXXXX......................................XXXXXXXXXXXX  ",
"  XXXXXXXXXX......................................XXXXXXXXXXXX  ",
"  XXXXXXXXXX......................................XXXXXXXXXXXX  ",
"  XXXXXXXXXX......................................XXXXXXXXXXXX  ",
"  XXXXXXXXXX......................................XXXXXXXXXXXX  ",
"  XXXXXXXXXX......................................XXXXXXXXXXXX  ",
"  XXXXXXXXXX......................................XXXXXXXXXXXX  ",
"  XXXXXXXXXX......................................XXXXXXXXXXXX  ",
"  XXXXXXXXXXXX..................................XXXXXXXXXXXXXX  ",
"  XXXXXXXXXXXX..................................XXXXXXXXXXXXXX  ",
"  XXXXXXXXXXXXXX..............................XXXXXXXXXXXXXXXX  ",
"  XXXXXXXXXXXXXX..............................XXXXXXXXXXXXXXXX  ",
"  XXXXXXXXXXXXXXXX..........................XXXXXXXXXXXXXXXXXX  ",
"  XXXXXXXXXXXXXXXX..........................XXXXXXXXXXXXXXXXXX  ",
"  XXXXXXXXXXXXXXXXXX......................XXXXXXXXXXXXXXXXXXXX  ",
"  XXXXXXXXXXXXXXXXXX......................XXXXXXXXXXXXXXXXXXXX  ",
"  XXXXXXXXXXXXXXXXXXXX..................XXXXXXXXXXXXXXXXXXXXXX  ",
"  XXXXXXXXXXXXXXXXXXXX..................XXXXXXXXXXXXXXXXXXXXXX  ",
"  XXXXXXXXXXXXXXXXXXXXXX..............XXXXXXXXXXXXXXXXXXXXXXXX  ",
"  XXXXXXXXXXXXXXXXXXXXXX..............XXXXXXXXXXXXXXXXXXXXXXXX  ",
"  XXXXXXXXXXXXXXXXXXXXXXXX..........XXXXXXXXXXXXXXXXXXXXXXXXXX  ",
"  XXXXXXXXXXXXXXXXXXXXXXXX..........XXXXXXXXXXXXXXXXXXXXXXXXXX  ",
"  XXXXXXXXXXXXXXXXXXXXXXXXXX......XXXXXXXXXXXXXXXXXXXXXXXXXXXX  ",
"  XXXXXXXXXXXXXXXXXXXXXXXXXX......XXXXXXXXXXXXXXXXXXXXXXXXXXXX  ",
"  XXXXXXXXXXXXXXXXXXXXXXXXXXXX..XXXXXXXXXXXXXXXXXXXXXXXXXXXXXX  ",
"  XXXXXXXXXXXXXXXXXXXXXXXXXXXX..XXXXXXXXXXXXXXXXXXXXXXXXXXXXXX  ",
"  XXXXXXXXXXXXXXXXXXXXXXXXXXXXXXXXXXXXXXXXXXXXXXXXXXXXXXXXXXXX  ",
"  XXXXXXXXXXXXXXXXXXXXXXXXXXXXXXXXXXXXXXXXXXXXXXXXXXXXXXXXXXXX  ",
"  XXXXXXXXXXXXXXXXXXXXXXXXXXXXXXXXXXXXXXXXXXXXXXXXXXXXXXXXXXXX  ",
"  XXXXXXXXXXXXXXXXXXXXXXXXXXXXXXXXXXXXXXXXXXXXXXXXXXXXXXXXXXXX  ",
"  XXXXXXXXXXXXXXXXXXXXXXXXXXXXXXXXXXXXXXXXXXXXXXXXXXXXXXXXXXXX  ",
"  XXXXXXXXXXXXXXXXXXXXXXXXXXXXXXXXXXXXXXXXXXXXXXXXXXXXXXXXXXXX  ",
"  XXXXXXXXXXXXXXXXXXXXXXXXXXXXXXXXXXXXXXXXXXXXXXXXXXXXXXXXXXXX  ",
"  XXXXXXXXXXXXXXXXXXXXXXXXXXXXXXXXXXXXXXXXXXXXXXXXXXXXXXXXXXXX  ",
"  XXXXXXXXXXXXXXXXXXXXXXXXXXXXXXXXXXXXXXXXXXXXXXXXXXXXXXXXXXXX  ",
"  XXXXXXXXXXXXXXXXXXXXXXXXXXXXXXXXXXXXXXXXXXXXXXXXXXXXXXXXXXXX  ",
"  XXXXXXXXXXXXXXXXXXXXXXXXXXXXXXXXXXXXXXXXXXXXXXXXXXXXXXXXXXXX  ",
"  XXXXXXXXXXXXXXXXXXXXXXXXXXXXXXXXXXXXXXXXXXXXXXXXXXXXXXXXXXXX  ",
"                                                                ",
"                                                                "
};
