/* XPM */
static char *_4e3ff2f5dd64a009ff26dedd54529e1NECeyCOiLH67xR14[] = {
/* columns rows colors chars-per-pixel */
"64 64 2 1 ",
"  c black",
". c #0018FA",
/* pixels */
"                                                                ",
"                                                                ",
"                                                                ",
"                                                                ",
"                          ..                                    ",
"                          ..                                    ",
"          ..                                      ..            ",
"          ..                                      ..            ",
"                                                                ",
"                                                                ",
"                                ..                              ",
"                                ..                              ",
"                                                                ",
"                                                                ",
"                        ..                                      ",
"                        ..                                      ",
"                                              ..                ",
"                                              ..                ",
"                ..                          ..                  ",
"                ..                          ..                  ",
"                ..                          ..                  ",
"                ..                          ..                  ",
"                ..                          ..        ..        ",
"                ..                          ..        ..        ",
"                ..                          ..                  ",
"                ..                          ..                  ",
"      ..          ..                      ..                    ",
"      ..          ..                      ..                    ",
"                  ..          ..          ..                    ",
"                  ..          ..          ..                    ",
"                  ..          ..          ..                    ",
"                  ..          ..          ..                    ",
"                    ..      ..  ..      ..                      ",
"                    ..      ..  ..      ..                      ",
"                    ..      ..  ..      ..    ..                ",
"                    ..      ..  ..      ..    ..                ",
"                    ..      ..  ..      ..            ..        ",
"                    ..      ..  ..      ..            ..        ",
"                      ..  ..      ..  ..                        ",
"                      ..  ..      ..  ..                        ",
"                      ..  ..      ..  ..                        ",
"                      ..  ..      ..  ..                        ",
"                        ..          ..                          ",
"                        ..          ..                          ",
"            ..                                                  ",
"            ..                                                  ",
"                          ..                          ..        ",
"                          ..                          ..        ",
"                                                                ",
"                                                                ",
"                                        ..                      ",
"                                        ..                      ",
"                ..                                              ",
"                ..                                              ",
"                                                                ",
"                                                                ",
"                              ..            ..                  ",
"                              ..            ..                  ",
"                                                                ",
"                                                                ",
"                                                                ",
"                                                                ",
"                                                                ",
"                                                                "
};
