/* XPM */
static char *_7e29a55c8f44160a2dd1531ddd96f1c3xi5kllPAasl7bw8[] = {
/* columns rows colors chars-per-pixel */
"64 64 3 1 ",
"  c black",
". c #BD00FF",
"X c #00FFD8",
/* pixels */
"                                                                ",
"                                                                ",
"  ............................................................  ",
"  ............................................................  ",
"  ............................................................  ",
"  ............................................................  ",
"  ............................................................  ",
"  ............................................................  ",
"  ........XX..................XX..................XX..........  ",
"  ........XX..................XX..................XX..........  ",
"  ..........XX................XX................XX............  ",
"  ..........XX................XX................XX............  ",
"  ............XX..............XX..............XX..............  ",
"  ............XX..............XX..............XX..............  ",
"  ..............XX............XX............XX................  ",
"  ..............XX............XX............XX................  ",
"  ................XX..........XX..........XX..................  ",
"  ................XX..........XX..........XX..................  ",
"  ..................XX........XX........XX....................  ",
"  ..................XX........XX........XX....................  ",
"  ....................XX......XX......XX......................  ",
"  ....................XX......XX......XX......................  ",
"  ......................XX....XX....XX........................  ",
"  ......................XX....XX....XX........................  ",
"  ........................XX..XX..XX..........................  ",
"  ........................XX..XX..XX..........................  ",
"  ..........................XXXXXX............................  ",
"  ..........................XXXXXX............................  ",
"  ......XXXXXXXXXXXXXXXXXXXXXXXXXXXXXXXXXXXXXXXXXXXX..........  ",
"  ......XXXXXXXXXXXXXXXXXXXXXXXXXXXXXXXXXXXXXXXXXXXX..........  ",
"  ..........................XXXXXX............................  ",
"  ..........................XXXXXX............................  ",
"  ........................XX..XX..XX..........................  ",
"  ........................XX..XX..XX..........................  ",
"  ......................XX....XX....XX........................  ",
"  ......................XX....XX....XX........................  ",
"  ....................XX......XX......XX......................  ",
"  ....................XX......XX......XX......................  ",
"  ..................XX........XX........XX....................  ",
"  ..................XX........XX........XX....................  ",
"  ................XX..........XX..........XX..................  ",
"  ................XX..........XX..........XX..................  ",
"  ..............XX............XX............XX................  ",
"  ..............XX............XX............XX................  ",
"  ............XX..............XX..............XX..............  ",
"  ............XX..............XX..............XX..............  ",
"  ..........XX................XX................XX............  ",
"  ..........XX................XX................XX............  ",
"  ........XX..................XX..................XX..........  ",
"  ........XX..................XX..................XX..........  ",
"  ............................................................  ",
"  ............................................................  ",
"  ............................................................  ",
"  ............................................................  ",
"  ............................................................  ",
"  ............................................................  ",
"  ............................................................  ",
"  ............................................................  ",
"  ............................................................  ",
"  ............................................................  ",
"  ............................................................  ",
"  ............................................................  ",
"                                                                ",
"                                                                "
};
